<?xml version="1.0" standalone="no"?>
<!DOCTYPE svg PUBLIC "-//W3C//DTD SVG 20010904//EN"
 "http://www.w3.org/TR/2001/REC-SVG-20010904/DTD/svg10.dtd">
<svg version="1.0" xmlns="http://www.w3.org/2000/svg"
 width="256.000000pt" height="90.000000pt" viewBox="0 0 256.000000 90.000000"
 preserveAspectRatio="xMidYMid meet">

<g transform="translate(0.000000,90.000000) scale(0.100000,-0.100000)"
fill="#000000" stroke="none">
<path d="M413 836 c-99 -34 -76 -161 29 -161 24 0 43 6 46 13 2 7 10 19 18 26
11 12 11 15 0 19 -11 5 -31 71 -29 102 0 15 -25 15 -64 1z"/>
<path d="M506 802 c-3 -6 -1 -14 5 -17 15 -10 25 3 12 16 -7 7 -13 7 -17 1z"/>
<path d="M1435 651 c-70 -17 -106 -56 -126 -134 -22 -89 13 -167 93 -208 48
-24 95 -24 136 1 28 17 33 18 38 5 19 -49 31 20 15 90 -7 30 -7 29 -19 -16
-23 -90 -116 -108 -156 -31 -52 104 -10 282 68 282 34 0 82 -43 89 -80 10 -47
22 -35 25 24 2 53 -10 81 -22 51 -5 -14 -8 -14 -28 -1 -31 19 -76 26 -113 17z
m-67 -233 c-3 -7 -11 -13 -18 -13 -7 0 -15 6 -17 13 -3 7 4 12 17 12 13 0 20
-5 18 -12z"/>
<path d="M378 634 c21 -14 22 -22 22 -158 0 -138 -1 -144 -22 -159 -22 -15
-19 -16 57 -16 59 0 75 2 63 10 -16 9 -18 28 -18 164 0 136 2 155 18 164 12 8
-4 10 -63 11 -75 0 -78 -1 -57 -16z"/>
<path d="M578 634 c21 -14 22 -22 22 -159 0 -137 -1 -145 -22 -159 -21 -15
-18 -16 55 -16 l77 0 -20 20 c-17 17 -20 31 -18 83 l3 62 63 3 62 3 0 -76 c0
-59 -3 -75 -14 -75 -8 0 -18 -4 -21 -10 -4 -6 22 -10 72 -10 67 1 76 3 61 14
-16 12 -18 32 -18 161 0 129 2 149 18 161 15 11 6 13 -63 13 -66 0 -76 -2 -57
-11 21 -11 23 -17 20 -82 l-3 -71 -60 0 -60 0 -1 64 c-1 50 3 68 18 83 17 17
16 18 -59 18 -73 0 -76 -1 -55 -16z m82 -40 c0 -16 -26 -19 -35 -4 -3 6 -4 14
0 20 8 13 35 1 35 -16z"/>
<path d="M960 590 c0 -65 14 -80 24 -26 7 37 30 62 61 68 19 3 20 -3 23 -149
l3 -152 -28 -15 c-27 -14 -23 -15 67 -15 74 0 89 3 68 10 l-27 10 -3 156 c-2
85 1 157 5 160 16 10 59 -29 77 -70 l19 -42 0 63 1 62 -145 0 -145 0 0 -60z"/>
<path d="M1676 432 c-3 -5 5 -8 17 -8 17 1 23 -6 25 -27 2 -16 -2 -36 -9 -45
-8 -9 -1 -6 14 7 29 26 34 50 15 69 -14 14 -54 16 -62 4z"/>
<path d="M1832 433 c-21 -8 -44 -62 -36 -86 7 -25 33 -57 46 -57 5 0 1 11 -8
25 -20 31 -13 94 13 112 17 13 9 16 -15 6z"/>
<path d="M1888 424 c27 -18 30 -78 6 -112 -8 -12 -11 -22 -5 -22 16 0 51 51
51 75 0 28 -36 75 -58 75 -13 0 -12 -3 6 -16z"/>
<path d="M1984 424 c-18 -14 -18 -15 4 -4 49 24 70 -19 35 -70 l-16 -25 26 24
c15 13 29 33 33 43 13 42 -43 64 -82 32z"/>
<path d="M2172 411 c-16 -22 -18 -29 -6 -24 12 5 15 -1 12 -28 -3 -29 -7 -34
-32 -37 -21 -3 -26 0 -20 10 6 10 4 10 -9 -1 -26 -21 -21 -29 21 -33 30 -2 38
-7 40 -25 5 -31 22 -29 22 2 0 16 6 25 15 25 8 0 15 7 15 15 0 8 -6 12 -15 9
-11 -5 -15 7 -17 56 l-3 62 -23 -31z"/>
<path d="M1708 311 c-68 -10 -71 -21 -5 -21 44 0 57 3 57 15 0 8 -1 14 -2 14
-2 -1 -24 -5 -50 -8z"/>
<path d="M1978 303 c-8 -10 2 -13 46 -13 38 0 56 4 56 13 0 8 -16 12 -46 12
-25 0 -50 -6 -56 -12z"/>
<path d="M1240 255 c-20 -21 -22 -29 -13 -44 10 -16 6 -24 -23 -52 -19 -18
-34 -36 -34 -40 0 -4 19 12 43 35 30 29 38 43 30 49 -19 12 -16 28 9 54 12 13
19 23 16 23 -2 0 -15 -11 -28 -25z"/>
<path d="M472 245 c-13 -29 -5 -33 14 -7 11 14 13 15 14 1 0 -8 -9 -24 -20
-35 -11 -10 -30 -28 -41 -39 -39 -37 -53 -65 -40 -78 10 -9 11 -8 6 5 -8 21
81 112 102 104 7 -3 13 -1 13 4 0 6 -4 10 -9 10 -5 0 -7 8 -4 18 2 10 -2 24
-10 30 -11 10 -16 7 -25 -13z"/>
<path d="M1010 220 c-12 -23 -20 -44 -17 -46 2 -2 14 14 26 37 13 22 21 43 18
46 -3 3 -15 -14 -27 -37z"/>
<path d="M1287 241 c-4 -17 -3 -21 5 -13 5 5 8 16 6 23 -3 8 -7 3 -11 -10z"/>
<path d="M1516 225 c-27 -49 -15 -54 13 -5 12 22 19 40 14 40 -5 0 -17 -16
-27 -35z"/>
<path d="M764 218 l-19 -23 23 19 c21 18 27 26 19 26 -2 0 -12 -10 -23 -22z"/>
<path d="M930 199 c0 -5 5 -7 10 -4 6 3 10 8 10 11 0 2 -4 4 -10 4 -5 0 -10
-5 -10 -11z"/>
<path d="M740 181 c0 -14 38 -34 53 -27 7 2 5 5 -5 5 -9 1 -24 8 -32 17 -9 8
-16 11 -16 5z"/>
<path d="M1350 181 c0 -7 -6 -11 -13 -8 -7 3 -19 -4 -26 -15 -7 -11 -8 -17 -3
-14 6 3 12 1 14 -5 2 -7 12 1 22 16 10 14 15 29 12 33 -3 3 -6 0 -6 -7z"/>
<path d="M577 173 c-10 -9 -9 -33 1 -33 4 0 8 9 8 20 0 23 0 22 -9 13z"/>
<path d="M612 170 c3 -8 -3 -32 -14 -53 -11 -21 -18 -43 -16 -49 2 -5 14 13
27 42 19 41 21 54 11 63 -10 9 -11 9 -8 -3z"/>
<path d="M910 144 c-7 -19 -9 -38 -6 -41 3 -4 6 0 6 8 0 8 7 26 14 42 8 15 11
27 6 27 -5 0 -14 -16 -20 -36z"/>
<path d="M1076 172 c-2 -4 2 -15 9 -25 8 -12 15 -14 20 -8 3 6 1 11 -5 11 -7
0 -10 7 -6 15 5 15 -9 21 -18 7z"/>
<path d="M865 160 c-3 -5 -2 -10 4 -10 5 0 13 5 16 10 3 6 2 10 -4 10 -5 0
-13 -4 -16 -10z"/>
<path d="M1011 154 c0 -11 3 -14 6 -6 3 7 2 16 -1 19 -3 4 -6 -2 -5 -13z"/>
<path d="M1370 159 c0 -5 5 -7 10 -4 6 3 10 8 10 11 0 2 -4 4 -10 4 -5 0 -10
-5 -10 -11z"/>
<path d="M1417 164 c-11 -11 3 -24 18 -18 8 4 12 10 9 15 -6 11 -18 12 -27 3z"/>
<path d="M1487 163 c-4 -3 -7 -11 -7 -17 0 -6 5 -5 12 2 6 6 9 14 7 17 -3 3
-9 2 -12 -2z"/>
<path d="M1544 151 c-38 -23 -50 -39 -37 -52 6 -6 15 -3 24 8 13 16 12 17 -3
4 -11 -8 -18 -9 -18 -3 0 6 16 20 35 32 19 12 35 24 35 26 0 6 -3 5 -36 -15z"/>
<path d="M797 105 c-15 -30 -25 -55 -22 -55 7 0 57 101 53 106 -2 2 -16 -21
-31 -51z"/>
<path d="M736 80 c-20 -22 -36 -46 -36 -53 0 -6 6 -3 12 8 6 11 24 35 41 53
17 17 28 32 25 32 -3 0 -22 -18 -42 -40z"/>
<path d="M1085 110 c-4 -6 -11 -7 -17 -4 -7 4 -8 2 -4 -5 6 -9 11 -9 22 0 14
11 18 19 10 19 -3 0 -8 -5 -11 -10z"/>
<path d="M749 23 c-13 -16 -12 -17 4 -4 9 7 17 15 17 17 0 8 -8 3 -21 -13z"/>
</g>
</svg>
